<?xml version="1.0" standalone="no"?>
<!DOCTYPE svg PUBLIC "-//W3C//DTD SVG 20010904//EN"
 "http://www.w3.org/TR/2001/REC-SVG-20010904/DTD/svg10.dtd">
<svg version="1.0" xmlns="http://www.w3.org/2000/svg"
 width="580.000000pt" height="431.000000pt" viewBox="0 0 580.000000 431.000000"
 preserveAspectRatio="xMidYMid meet">

<g transform="translate(0.000000,431.000000) scale(0.100000,-0.100000)"
fill="#000000" stroke="none">
<path d="M205 4224 c-66 -25 -124 -49 -129 -54 -6 -6 15 -77 51 -177 277 -767
473 -1597 538 -2278 28 -292 44 -737 29 -827 l-6 -36 -117 -32 c-209 -57 -189
-47 -197 -98 -5 -30 -3 -47 6 -52 6 -4 69 -24 139 -45 l128 -37 154 21 c516
69 894 97 1359 100 529 3 918 -28 1440 -115 345 -57 856 -199 1230 -342 125
-48 427 -175 490 -207 87 -43 79 -46 179 69 50 57 91 109 91 114 0 5 -26 20
-57 32 -32 13 -65 29 -74 37 -9 8 -57 94 -107 191 -307 601 -469 1116 -538
1712 -9 80 -17 146 -18 147 -4 5 -310 -77 -317 -84 -8 -9 26 -224 66 -413 99
-469 257 -883 479 -1258 39 -65 50 -92 38 -88 -432 131 -708 202 -1042 269
-694 140 -1226 194 -2025 204 l-450 5 -75 -36 c-97 -47 -180 -50 -256 -10 -45
24 -54 25 -138 19 l-89 -7 7 37 c27 144 38 280 43 535 l5 286 -31 55 c-36 65
-39 94 -10 110 19 10 21 16 14 77 -46 457 -182 1033 -384 1635 -48 142 -57
177 -43 172 68 -26 418 -126 612 -174 483 -122 882 -189 1410 -238 234 -22
1013 -25 1245 -5 147 12 370 36 450 48 l41 6 18 -189 c21 -233 74 -754 81
-809 l6 -41 113 28 c62 15 139 30 171 34 l57 8 -6 202 c-6 188 2 488 23 930 5
99 8 182 6 184 -3 2 -39 -2 -82 -8 -554 -86 -804 -109 -1258 -118 -986 -18
-1972 148 -2942 495 -94 34 -180 62 -190 61 -10 0 -72 -21 -138 -45z m3644
-3574 c18 0 28 -5 28 -15 0 -8 -6 -15 -14 -15 -7 0 -13 5 -13 10 0 6 -4 10
-10 10 -5 0 -10 -7 -10 -15 0 -11 -6 -12 -22 -6 -13 5 -23 15 -23 22 0 16 28
31 33 18 2 -5 16 -9 31 -9z m55 -25 c-4 -8 -8 -15 -10 -15 -2 0 -4 7 -4 15 0
8 4 15 10 15 5 0 7 -7 4 -15z m71 6 c18 -7 18 -8 1 -18 -25 -14 -56 -5 -49 13
6 15 18 17 48 5z m205 -5 c0 -7 -18 -11 -47 -11 -64 0 -67 21 -3 22 31 0 50
-4 50 -11z m93 5 c30 -2 18 -21 -13 -21 -16 0 -30 5 -30 11 0 5 -5 7 -12 3 -6
-4 -8 -3 -5 4 4 5 15 9 25 7 9 -2 25 -4 35 -4z m-403 -41 c3 -1 8 -2 13 -1 4
0 7 -3 7 -8 0 -6 -24 -8 -52 -6 -29 1 -62 3 -73 4 -16 1 -17 3 -6 10 12 8 94
8 111 1z"/>
<path d="M1131 3353 c-95 -47 -121 -207 -40 -248 36 -19 112 -19 149 0 28 15
70 60 70 76 0 20 -60 8 -84 -16 -29 -29 -76 -33 -100 -9 -32 31 -11 115 36
148 32 23 85 21 98 -4 7 -13 21 -20 40 -20 40 0 40 30 -1 64 -24 21 -41 26
-82 26 -29 0 -67 -8 -86 -17z"/>
<path d="M1521 3348 c-82 -44 -120 -170 -67 -223 34 -34 96 -49 148 -34 80 21
146 116 131 189 -15 79 -126 114 -212 68z m130 -49 c40 -40 7 -128 -56 -155
-67 -27 -114 18 -94 90 20 73 105 110 150 65z"/>
<path d="M1852 3232 c-17 -70 -32 -131 -32 -135 0 -4 13 -7 29 -7 29 0 30 2
54 103 l25 102 1 -102 1 -103 35 0 c33 0 36 4 87 94 29 52 53 94 55 93 1 -2
-9 -41 -22 -87 -14 -47 -25 -88 -25 -92 0 -5 14 -8 30 -8 17 0 30 2 30 4 0 1
14 58 30 124 17 67 30 126 30 132 0 7 -18 10 -46 8 l-47 -3 -47 -83 c-53 -93
-60 -91 -60 19 l0 69 -48 0 -47 0 -33 -128z"/>
<path d="M2282 3228 c-17 -73 -30 -133 -29 -134 1 -1 54 -4 118 -8 101 -5 118
-4 123 10 12 31 5 34 -79 34 -91 0 -95 3 -76 53 9 23 12 24 81 19 55 -4 74 -2
81 9 21 33 10 39 -67 39 l-75 0 3 28 c3 27 4 27 83 30 77 3 94 10 95 40 0 9
-29 12 -113 12 l-113 0 -32 -132z"/>
<path d="M2666 3344 c-8 -29 -56 -245 -56 -256 0 -5 14 -8 32 -6 29 3 32 7 43
56 15 64 18 68 53 56 19 -6 35 -25 52 -61 23 -48 28 -53 58 -53 17 0 32 3 32
7 0 3 -13 30 -30 59 l-29 52 30 12 c35 15 49 37 49 78 0 50 -29 66 -135 70
-84 4 -93 3 -99 -14z m171 -49 c11 -30 -26 -55 -80 -55 -46 0 -49 1 -43 23 3
12 6 28 6 35 0 19 109 16 117 -3z"/>
<path d="M3100 3349 c-58 -23 -92 -79 -92 -149 0 -26 5 -57 11 -68 27 -51 129
-69 188 -32 34 21 58 55 48 70 -12 19 -53 10 -69 -15 -20 -31 -74 -34 -99 -7
-32 36 -12 128 32 152 31 16 70 12 83 -10 9 -13 24 -20 45 -20 29 0 32 2 24
23 -19 53 -106 82 -171 56z"/>
<path d="M3405 3328 c-8 -32 -45 -231 -45 -240 0 -5 13 -8 30 -8 22 0 31 5 35
23 8 31 45 230 45 239 0 5 -13 8 -30 8 -22 0 -31 -5 -35 -22z"/>
<path d="M3639 3278 c-23 -40 -57 -98 -75 -129 -19 -31 -34 -59 -34 -63 0 -3
13 -6 29 -6 23 0 34 7 48 30 16 28 21 30 75 30 57 0 59 -1 65 -30 4 -25 10
-30 34 -30 16 0 29 4 29 10 0 10 -34 161 -51 223 -9 34 -13 37 -44 37 -32 0
-37 -5 -76 -72z m85 -55 l8 -33 -41 0 c-23 0 -41 2 -41 5 0 2 12 25 27 49 30
49 32 48 47 -21z"/>
<path d="M3965 3338 c-2 -7 -11 -60 -20 -118 -9 -58 -19 -113 -21 -122 -5 -16
5 -18 105 -18 l111 0 0 25 c0 24 -2 25 -70 25 -82 0 -79 -7 -55 130 8 47 15
86 15 88 0 9 -61 -1 -65 -10z"/>
<path d="M1894 2970 c-23 -12 -50 -31 -61 -43 -19 -21 -95 -190 -258 -575
l-78 -184 -235 -114 c-130 -63 -237 -116 -240 -118 -2 -2 3 -16 11 -31 12 -23
40 -38 167 -86 84 -32 154 -59 155 -61 2 -2 -32 -172 -76 -378 -43 -206 -78
-378 -79 -382 -1 -16 90 -48 136 -48 47 0 126 29 166 61 13 11 30 96 73 369
31 195 58 356 58 356 7 6 595 -159 642 -180 78 -33 144 -35 172 -3 l21 22
-174 405 c-96 223 -174 408 -174 412 0 10 332 170 338 163 3 -3 -14 -152 -37
-331 -43 -324 -43 -327 -24 -353 31 -42 89 -66 160 -64 72 1 114 22 166 84 33
38 66 114 54 125 -3 3 -33 8 -67 11 l-62 6 8 389 7 389 -49 50 c-26 27 -54 49
-61 49 -19 0 -26 -19 -13 -36 13 -15 7 -93 -10 -138 -6 -17 -68 -57 -218 -140
-115 -64 -213 -116 -219 -116 -5 0 -15 95 -22 212 -7 117 -17 223 -22 234 -23
63 -83 79 -155 44z m34 -415 c5 -88 7 -163 3 -167 -8 -8 -203 -69 -208 -65 -2
3 74 184 158 377 29 64 35 43 47 -145z m73 -532 c35 -138 62 -254 59 -257 -3
-2 -95 15 -205 38 l-200 43 1 73 c1 41 5 111 9 157 l7 83 126 69 c86 47 129
66 133 58 4 -7 35 -125 70 -264z m-576 -50 c-4 -27 -9 -51 -12 -55 -2 -5 -33
-8 -69 -8 -35 0 -64 3 -64 8 1 8 131 100 144 101 4 1 5 -20 1 -46z"/>
<path d="M3775 2817 c-33 -19 -47 -38 -84 -115 -25 -50 -49 -92 -54 -92 -5 0
-34 15 -65 33 -105 61 -201 86 -254 65 -16 -7 -16 -10 -2 -52 12 -34 37 -66
106 -131 49 -47 101 -93 114 -101 13 -9 24 -20 24 -24 0 -5 -68 -118 -151
-252 l-151 -243 7 -70 c3 -39 9 -76 13 -82 4 -7 62 24 157 83 282 177 659 352
965 448 231 73 680 174 890 201 119 15 79 24 -107 25 -215 0 -348 -14 -572
-61 -257 -55 -533 -144 -846 -274 -87 -36 -159 -64 -161 -62 -2 2 39 61 91
130 93 124 96 126 122 116 51 -20 163 -16 207 7 l39 21 -106 62 c-59 35 -109
66 -111 70 -2 3 20 49 50 101 29 52 54 106 54 119 0 14 -15 38 -39 62 -46 46
-77 50 -136 16z"/>
<path d="M3089 2600 c-96 -29 -224 -128 -285 -219 -27 -41 -29 -51 -28 -135 1
-110 28 -190 85 -250 34 -37 42 -41 86 -40 65 1 139 27 215 76 87 55 110 78
97 94 -8 10 -33 6 -120 -17 -115 -30 -141 -29 -181 8 -42 37 -10 82 105 152
195 118 253 214 175 291 -48 48 -88 59 -149 40z m51 -123 c0 -24 -44 -98 -72
-122 -33 -28 -76 -33 -84 -10 -9 22 76 138 106 145 29 8 50 2 50 -13z"/>
<path d="M4075 1450 c-18 -35 -19 -40 -2 -40 7 0 28 16 47 35 l34 35 -32 0
c-25 0 -35 -6 -47 -30z"/>
<path d="M3965 1388 c-2 -7 -11 -69 -20 -138 -9 -69 -18 -135 -21 -147 -4 -23
-3 -23 106 -23 60 0 110 4 110 9 0 5 3 16 6 25 5 14 -5 16 -75 16 -87 0 -87
-1 -75 58 6 31 7 31 78 34 65 3 71 5 74 26 3 21 0 22 -68 22 l-71 0 3 33 3 32
75 5 c73 5 75 6 78 33 l3 27 -101 0 c-72 0 -102 -4 -105 -12z"/>
<path d="M4286 1378 c-6 -26 -36 -267 -36 -286 0 -19 48 -14 54 6 3 9 8 50 12
90 4 40 10 74 14 77 4 2 24 -38 45 -90 36 -88 41 -95 67 -95 15 0 28 4 28 8 0
13 29 256 35 285 4 24 2 27 -24 27 -28 0 -29 -1 -36 -68 -3 -37 -10 -83 -14
-102 -7 -34 -8 -32 -48 65 -36 86 -45 100 -67 103 -20 3 -26 -2 -30 -20z"/>
<path d="M2684 1380 c-29 -12 -70 -63 -84 -106 -7 -20 -10 -63 -8 -95 3 -48
10 -65 33 -89 24 -25 37 -30 76 -30 53 0 90 23 115 72 13 25 14 32 2 39 -24
16 -43 9 -60 -21 -16 -28 -32 -35 -68 -30 -57 7 -51 168 8 199 37 20 71 13 84
-15 9 -19 17 -24 32 -20 12 3 24 6 28 6 15 0 -15 61 -39 80 -27 21 -81 26
-119 10z"/>
<path d="M2951 1248 c-12 -79 -24 -151 -27 -160 -4 -14 1 -18 24 -18 34 0 38
6 47 83 l7 57 55 0 55 0 -6 -35 c-20 -116 -21 -105 12 -105 35 0 30 -13 57
165 9 55 18 112 21 128 5 25 3 27 -24 27 -26 0 -31 -5 -36 -30 -3 -16 -9 -43
-12 -60 -5 -29 -8 -30 -56 -30 l-50 0 7 60 7 60 -29 0 -29 0 -23 -142z"/>
<path d="M3316 1358 c-3 -18 -13 -76 -21 -128 -8 -52 -18 -110 -21 -127 l-5
-33 109 0 c91 0 111 3 116 16 15 40 9 44 -75 44 l-81 0 6 31 c3 17 6 35 6 40
0 4 33 9 73 11 70 3 72 4 75 31 l3 27 -72 0 c-69 0 -71 1 -65 23 3 12 6 28 6
35 0 8 22 12 75 12 41 0 75 4 75 9 0 5 3 16 6 25 5 14 -7 16 -99 16 l-106 0
-5 -32z"/>
<path d="M3640 1378 c0 -7 -9 -71 -20 -143 -26 -171 -26 -167 8 -163 25 3 28
8 37 63 l10 60 54 3 c29 2 64 10 77 19 27 17 48 83 38 116 -15 49 -32 57 -121
57 -60 0 -83 -4 -83 -12z m144 -54 c9 -25 7 -33 -14 -54 -25 -25 -96 -29 -86
-4 3 9 6 29 6 45 0 28 2 29 44 29 31 0 46 -5 50 -16z"/>
</g>
</svg>
